<?xml version="1.0" encoding="UTF-8" standalone="no"?>
<!DOCTYPE svg PUBLIC "-//W3C//DTD SVG 1.1//EN" "http://www.w3.org/Graphics/SVG/1.1/DTD/svg11.dtd">
<svg width="100%" height="100%" viewBox="0 0 1182 1182" version="1.1" xmlns="http://www.w3.org/2000/svg" xmlns:xlink="http://www.w3.org/1999/xlink" xml:space="preserve" xmlns:serif="http://www.serif.com/" style="fill-rule:evenodd;clip-rule:evenodd;stroke-linejoin:round;stroke-miterlimit:2;">
    <g transform="matrix(2.54548,0,0,2.54548,-445.074,485.911)">
        <path d="M219.849,111.171C219.849,101.671 221.599,93.838 225.099,87.671C228.599,81.504 234.349,75.588 242.349,69.921C248.016,65.754 251.849,62.046 253.849,58.796C255.849,55.546 256.849,52.004 256.849,48.171C256.849,42.838 254.891,38.546 250.974,35.296C247.057,32.046 241.349,30.421 233.849,30.421C219.849,30.421 207.182,36.921 195.849,49.921L174.849,23.171C184.016,13.504 193.682,6.338 203.849,1.671C214.016,-2.996 225.432,-5.329 238.099,-5.329C250.099,-5.329 260.557,-3.287 269.474,0.796C278.391,4.879 285.307,10.588 290.224,17.921C295.141,25.254 297.599,33.838 297.599,43.671C297.599,53.171 295.349,61.629 290.849,69.046C286.349,76.463 279.516,83.421 270.349,89.921C265.182,93.421 261.557,96.921 259.474,100.421C257.391,103.921 256.349,108.588 256.349,114.421L256.349,122.421L219.849,122.421L219.849,111.171ZM214.849,153.421C214.849,146.921 217.057,141.629 221.474,137.546C225.891,133.463 231.432,131.421 238.099,131.421C244.766,131.421 250.307,133.463 254.724,137.546C259.141,141.629 261.349,146.921 261.349,153.421C261.349,159.921 259.141,165.213 254.724,169.296C250.307,173.379 244.766,175.421 238.099,175.421C231.432,175.421 225.891,173.379 221.474,169.296C217.057,165.213 214.849,159.921 214.849,153.421Z" style="fill:rgb(214,211,209);fill-rule:nonzero;"/>
        <path d="M380.599,80.296C380.599,66.046 383.224,54.296 388.474,45.046C393.724,35.796 402.349,26.921 414.349,18.421C422.849,12.171 428.599,6.608 431.599,1.733C434.599,-3.142 436.099,-8.454 436.099,-14.204C436.099,-22.204 433.161,-28.642 427.286,-33.517C421.411,-38.392 412.849,-40.829 401.599,-40.829C380.599,-40.829 361.599,-31.079 344.599,-11.579L313.099,-51.704C326.849,-66.204 341.349,-76.954 356.599,-83.954C371.849,-90.954 388.974,-94.454 407.974,-94.454C425.974,-94.454 441.661,-91.392 455.036,-85.267C468.411,-79.142 478.786,-70.579 486.161,-59.579C493.536,-48.579 497.224,-35.704 497.224,-20.954C497.224,-6.704 493.849,5.983 487.099,17.108C480.349,28.233 470.099,38.671 456.349,48.421C448.599,53.671 443.161,58.921 440.036,64.171C436.911,69.421 435.349,76.421 435.349,85.171L435.349,97.171L380.599,97.171L380.599,80.296ZM373.099,143.671C373.099,133.921 376.411,125.983 383.036,119.858C389.661,113.733 397.974,110.671 407.974,110.671C417.974,110.671 426.286,113.733 432.911,119.858C439.536,125.983 442.849,133.921 442.849,143.671C442.849,153.421 439.536,161.358 432.911,167.483C426.286,173.608 417.974,176.671 407.974,176.671C397.974,176.671 389.661,173.608 383.036,167.483C376.411,161.358 373.099,153.421 373.099,143.671Z" style="fill:rgb(214,211,209);fill-rule:nonzero;"/>
        <path d="M561.099,111.171C561.099,101.671 562.849,93.838 566.349,87.671C569.849,81.504 575.599,75.588 583.599,69.921C589.266,65.754 593.099,62.046 595.099,58.796C597.099,55.546 598.099,52.004 598.099,48.171C598.099,42.838 596.141,38.546 592.224,35.296C588.307,32.046 582.599,30.421 575.099,30.421C561.099,30.421 548.432,36.921 537.099,49.921L516.099,23.171C525.266,13.504 534.932,6.338 545.099,1.671C555.266,-2.996 566.682,-5.329 579.349,-5.329C591.349,-5.329 601.807,-3.287 610.724,0.796C619.641,4.879 626.557,10.588 631.474,17.921C636.391,25.254 638.849,33.838 638.849,43.671C638.849,53.171 636.599,61.629 632.099,69.046C627.599,76.463 620.766,83.421 611.599,89.921C606.432,93.421 602.807,96.921 600.724,100.421C598.641,103.921 597.599,108.588 597.599,114.421L597.599,122.421L561.099,122.421L561.099,111.171ZM556.099,153.421C556.099,146.921 558.307,141.629 562.724,137.546C567.141,133.463 572.682,131.421 579.349,131.421C586.016,131.421 591.557,133.463 595.974,137.546C600.391,141.629 602.599,146.921 602.599,153.421C602.599,159.921 600.391,165.213 595.974,169.296C591.557,173.379 586.016,175.421 579.349,175.421C572.682,175.421 567.141,173.379 562.724,169.296C558.307,165.213 556.099,159.921 556.099,153.421Z" style="fill:rgb(214,211,209);fill-rule:nonzero;"/>
    </g>
</svg>
